#!OML:ASF E:\basketball\basketball\Project 1\Capture day 1\Session 1\Subject.ASF
:FULLY-SPECIFIED
:DEGREES
163
root -6.72075 14.3992 -11.8768 22.6437 64.5591 5.16348
lowerback 17.3622 -2.16269 2.22481
upperback 8.55558 -1.9434 4.26551
thorax -0.499726 -0.82046 3.58026
lowerneck -5.28099 -2.86929 -6.81298
upperneck -22.4248 -1.38743 11.5905
head -5.66251 -0.639904 4.91756
rclavicle -5.48646e-014 1.27222e-014
rhumerus 14.3919 7.05768 -73.8956
rradius 110.883
rwrist 26.6301
rhand -22.584 22.1169
rfingers 7.12502
rthumb 3.8448 -7.82817
lclavicle -5.48646e-014 1.27222e-014
lhumerus -56.7763 -12.3155 105.155
lradius 26.1374
lwrist 6.17669
lhand -15.2688 37.5265
lfingers 7.12502
lthumb 10.9055 67.2233
rfemur -35.8356 -3.75888 32.9941
rtibia 62.8314
rfoot -34.9874 -10.4866
rtoes 7.40864
lfemur -23.0714 13.2793 -15.2726
ltibia 99.1178
lfoot -2.92556 1.10572
ltoes -19.8853
164
root -6.33867 14.4256 -11.7518 22.5415 64.3837 4.94129
lowerback 17.0665 -1.59346 2.33315
upperback 8.63068 -1.21807 4.09572
thorax -0.307953 -0.455197 3.20291
lowerneck -5.33675 -3.48938 -6.88395
upperneck -22.4603 -2.15663 12.1141
head -5.57154 -1.04268 5.11564
rclavicle 2.38542e-014 -5.08889e-014
rhumerus 14.4331 7.10408 -72.362
rradius 106.543
rwrist 26.8698
rhand -22.466 23.5666
rfingers 7.12502
rthumb 3.95877 -6.37635
lclavicle 2.38542e-014 -5.08889e-014
lhumerus -58.3394 -12.8297 104.955
lradius 27.3321
lwrist 6.71489
lhand -14.6813 38.7476
lfingers 7.12502
lthumb 11.4721 68.4137
rfemur -33.6646 -4.15112 32.5982
rtibia 61.666
rfoot -34.728 -11.1958
rtoes 0.35772
lfemur -26.7128 12.4577 -15.2149
ltibia 100.294
lfoot -4.34299 1.14278
ltoes -18.0466
165
root -5.95843 14.4705 -11.6147 22.3659 64.3378 4.33
lowerback 16.6098 -1.03775 2.4828
upperback 8.54634 -0.511336 4.02695
thorax -0.19154 -0.103012 2.91739
lowerneck -5.70975 -3.96457 -6.87074
upperneck -22.531 -2.66773 12.7348
head -5.45901 -1.31532 5.319
rclavicle -6.99722e-014 7.31528e-014
rhumerus 14.3004 6.96668 -70.8954
rradius 101.784
rwrist 27.252
rhand -21.9762 24.4893
rfingers 7.12502
rthumb 4.43179 -5.4443
lclavicle -6.99722e-014 7.31528e-014
lhumerus -60.3989 -13.8135 105.381
lradius 29.169
lwrist 8.4865
lhand -14.1364 39.0841
lfingers 7.12502
lthumb 11.9976 68.7203
rfemur -31.6398 -4.56295 32.4903
rtibia 60.2016
rfoot -34.0603 -12.0782
rtoes -7.22991
lfemur -31.3807 11.7069 -14.9542
ltibia 101
lfoot -5.06529 1.48493
ltoes -18.9815
166
root -5.55127 14.5282 -11.4741 21.1737 63.8696 3.23103
lowerback 16.5082 -0.424159 2.66049
upperback 8.64882 0.29611 3.93895
thorax -0.0555078 0.305208 2.59065
lowerneck -4.81183 -4.55676 -7.82272
upperneck -22.8442 -3.33639 13.9221
head -5.5677 -1.67817 5.91595
rclavicle -5.56597e-015 1.19271e-014
rhumerus 14.0084 6.76762 -69.7285
rradius 96.6519
rwrist 27.8119
rhand -21.4957 24.8731
rfingers 7.12502
rthumb 4.89575 -5.05035
lclavicle -5.56597e-015 1.19271e-014
lhumerus -62.6252 -14.8452 106.095
lradius 31.2162
lwrist 11.1951
lhand -13.9005 38.673
lfingers 7.12502
lthumb 12.2251 68.2957
rfemur -28.6141 -4.66515 32.2056
rtibia 58.4606
rfoot -33.5987 -11.3321
rtoes -10.0592
lfemur -34.2524 11.3852 -14.3723
ltibia 100.72
lfoot -6.43984 1.85918
ltoes -17.1359
167
root -5.14295 14.592 -11.3267 20.5032 63.4704 2.63381
lowerback 16.3048 0.204104 2.65694
upperback 8.68779 1.08855 3.78753
thorax 0.073075 0.699931 2.30575
lowerneck -5.7359 -5.24562 -7.90135
upperneck -22.4031 -4.09007 14.9911
head -5.13723 -2.06906 6.24134
rclavicle 7.15625e-014 -1.82882e-014
rhumerus 13.6183 6.28169 -68.9541
rradius 91.043
rwrist 28.2773
rhand -20.9896 24.9919
rfingers 7.12502
rthumb 5.3844 -4.91973
lclavicle 7.15625e-014 -1.82882e-014
lhumerus -64.7789 -15.7524 106.467
lradius 33.3634
lwrist 14.0128
lhand -13.3462 38.049
lfingers 7.12502
lthumb 12.7595 67.6391
rfemur -25.567 -4.65484 31.679
rtibia 56.5531
rfoot -33.2023 -9.31027
rtoes -8.99762
lfemur -36.9312 10.9427 -14.0173
ltibia 99.8554
lfoot -7.71531 2.62559
ltoes -17.007
168
root -4.73769 14.6547 -11.1779 20.175 63.0689 2.48187
lowerback 16.3041 0.85035 2.34773
upperback 8.64599 1.87489 3.637
thorax 0.00602165 1.07994 2.19482
lowerneck -4.68645 -5.85389 -8.98847
upperneck -22.44 -4.856 16.1436
head -5.13643 -2.48084 6.84237
rclavicle 2.8625e-014 0
rhumerus 13.3601 5.60538 -68.3569
rradius 84.9613
rwrist 28.9852
rhand -20.6124 25.1251
rfingers 7.12502
rthumb 5.74862 -4.77695
lclavicle 2.8625e-014 0
lhumerus -66.8443 -16.5051 106.712
lradius 35.4185
lwrist 16.2276
lhand -12.3659 36.9516
lfingers 7.12502
lthumb 13.7044 66.4804
rfemur -22.5196 -4.66965 30.9607
rtibia 54.4627
rfoot -32.3373 -7.51539
rtoes -8.63486
lfemur -39.4931 10.3495 -13.8633
ltibia 98.4882
lfoot -8.99305 3.71073
ltoes -16.4452
169
root -4.33106 14.7133 -11.0294 20.1087 62.6045 2.58824
lowerback 16.2566 1.48479 1.8687
upperback 8.62817 2.61892 3.44021
thorax -0.0174627 1.43486 2.13893
lowerneck -4.21433 -6.46951 -9.68914
upperneck -22.5843 -5.56322 17.3357
head -5.07268 -2.87168 7.3785
rclavicle -1.51076e-014 -7.31528e-014
rhumerus 13.333 4.77137 -67.9147
rradius 78.6069
rwrist 30.0707
rhand -19.9436 24.7284
rfingers 7.12502
rthumb 6.39424 -5.15508
lclavicle -1.51076e-014 -7.31528e-014
lhumerus -68.5616 -17.173 106.763
lradius 37.3266
lwrist 17.7563
lhand -10.6245 35.2951
lfingers 7.12502
lthumb 15.3822 64.7029
rfemur -19.5438 -4.71846 30.1184
rtibia 52.2608
rfoot -30.976 -6.45167
rtoes -10.759
lfemur -41.8916 9.83271 -13.7803
ltibia 96.6502
lfoot -10.2289 4.6415
ltoes -14.1464
170
root -3.91353 14.7778 -10.872 20.1561 62.1792 2.84572
lowerback 16.1127 2.16271 1.41689
upperback 8.67181 3.41973 3.16869
thorax 0.074686 1.82171 1.98664
lowerneck -4.82672 -7.28009 -10.0974
upperneck -22.2993 -6.46546 18.6897
head -4.64911 -3.33731 7.84285
rclavicle -3.97569e-015 -5.08889e-014
rhumerus 13.2956 3.43859 -67.6653
rradius 72.1043
rwrist 31.1151
rhand -18.6191 23.5213
rfingers 7.12502
rthumb 7.67278 -6.31946
lclavicle -3.97569e-015 -5.08889e-014
lhumerus -69.881 -18.0658 106.494
lradius 39.316
lwrist 18.8724
lhand -8.05807 34.2509
lfingers 7.12502
lthumb 17.853 63.4515
rfemur -16.3873 -4.78995 29.2257
rtibia 49.8761
rfoot -29.3373 -5.81894
rtoes -14.0715
lfemur -43.9679 9.40897 -13.7022
ltibia 94.2424
lfoot -11.0993 5.26016
ltoes -12.7079
171
root -3.4797 14.8549 -10.7034 20.6463 61.7893 3.66929
lowerback 15.9477 2.88264 0.831718
upperback 8.72698 4.25798 2.7856
thorax 0.186153 2.22532 1.79127
lowerneck -4.2911 -8.02713 -10.8864
upperneck -22.3629 -7.35732 20.1028
head -4.48593 -3.83181 8.45124
rclavicle 2.46493e-014 3.81667e-014
rhumerus 13.2231 1.55171 -67.7141
rradius 65.3984
rwrist 31.8797
rhand -16.9896 22.2756
rfingers 7.12502
rthumb 9.24541 -7.50174
lclavicle 2.46493e-014 3.81667e-014
lhumerus -70.9202 -19.2471 106.02
lradius 41.2637
lwrist 19.7964
lhand -5.31309 33.8672
lfingers 7.12502
lthumb 20.4926 62.8057
rfemur -13.1039 -4.86673 28.018
rtibia 47.3063
rfoot -27.4848 -4.68175
rtoes -15.8471
lfemur -45.6 8.82024 -13.8798
ltibia 91.2102
lfoot -11.7108 5.72161
ltoes -12.8626
172
root -3.0337 14.9364 -10.5251 21.3807 61.4367 4.72631
lowerback 15.616 3.56674 0.159501
upperback 8.7688 5.04022 2.36727
thorax 0.366035 2.59844 1.63036
lowerneck -3.59628 -8.7233 -11.7109
upperneck -22.4902 -8.20456 21.497
head -4.35217 -4.31295 9.0702
rclavicle -1.11319e-014 -4.29375e-014
rhumerus 13.2222 -0.760963 -68.1053
rradius 58.5163
rwrist 32.0642
rhand -14.9941 19.7836
rfingers 7.12502
rthumb 11.1704 -9.89904
lclavicle -1.11319e-014 -4.29375e-014
lhumerus -71.5502 -20.4473 105.314
lradius 42.8173
lwrist 20.5087
lhand -2.23441 33.3146
lfingers 7.12502
lthumb 23.4485 61.9058
rfemur -9.87698 -4.90492 26.6662
rtibia 44.5819
rfoot -25.3551 -2.63957
rtoes -13.4486
lfemur -46.8782 8.1526 -14.1137
ltibia 87.6685
lfoot -12.0597 5.87661
ltoes -14.337
173
root -2.58912 15.0041 -10.3428 21.8443 61.2589 5.45092
lowerback 15.206 4.21399 -0.377018
upperback 8.81553 5.80369 2.03745
thorax 0.593314 2.96512 1.50182
lowerneck -2.5186 -8.88509 -14.9205
upperneck -21.6975 -8.44304 23.9212
head -3.8777 -4.39215 10.4605
rclavicle -4.92986e-014 4.77083e-015
rhumerus 13.397 -3.89569 -68.8159
rradius 51.2962
rwrist 31.563
rhand -11.7564 14.8434
rfingers 7.12502
rthumb 14.2917 -14.6448
lclavicle -4.92986e-014 4.77083e-015
lhumerus -71.6653 -21.6602 104.372
lradius 44.0341
lwrist 21.1178
lhand 0.814571 32.7833
lfingers 7.12502
lthumb 26.3704 60.9696
rfemur -6.64871 -4.87341 25.6064
rtibia 41.7331
rfoot -22.8025 -0.885196
rtoes -10.2593
lfemur -47.9887 7.60745 -14.0276
ltibia 83.792
lfoot -12.2722 5.42871
ltoes -14.3204
174
root -2.14589 15.0603 -10.1583 22.4353 61.3283 6.33426
lowerback 14.874 4.82392 -0.894486
upperback 8.86617 6.53209 1.72831
thorax 0.782427 3.31547 1.39025
lowerneck -2.26295 -10.5248 -12.2496
upperneck -23.4114 -10.4369 23.8715
head -4.21621 -5.62288 9.97969
rclavicle -4.77083e-014 -3.18055e-015
rhumerus 13.8129 -8.34392 -69.888
rradius 43.5474
rwrist 30.9669
rhand -6.72006 9.95344
rfingers 7.12502
rthumb 19.14 -19.1248
lclavicle -4.77083e-014 -3.18055e-015
lhumerus -71.3278 -22.9705 103.201
lradius 45.1764
lwrist 21.8954
lhand 3.34765 32.6021
lfingers 7.12502
lthumb 28.7927 60.4013
rfemur -3.41815 -4.88543 24.6544
rtibia 38.8109
rfoot -19.8628 0.101896
rtoes -9.88328
lfemur -48.9282 7.01282 -13.8821
ltibia 79.5646
lfoot -12.3264 4.53516
ltoes -13.7321
175
root -1.69386 15.1171 -9.96517 23.1867 61.5804 7.43756
lowerback 14.5811 5.36273 -1.42029
upperback 8.8968 7.17422 1.41749
thorax 0.929613 3.62307 1.29381
lowerneck -1.91295 -11.3376 -13.2812
upperneck -23.3829 -11.4459 25.5283
head -3.83129 -6.17617 10.6582
rclavicle -5.24792e-014 -7.95139e-015
rhumerus 14.5032 -14.3087 -71.4288
rradius 35.4353
rwrist 31.3996
rhand -3.17728 8.24558
rfingers 7.12502
rthumb 22.5438 -20.4583
lclavicle -5.24792e-014 -7.95139e-015
lhumerus -70.7192 -24.3048 101.939
lradius 46.2377
lwrist 22.834
lhand 5.37634 32.6397
lfingers 7.12502
lthumb 30.7289 60.0925
rfemur -0.157194 -4.88977 23.7611
rtibia 35.8844
rfoot -16.8047 0.580601
rtoes -10.0249
lfemur -49.5375 6.31979 -13.7606
ltibia 74.9832
lfoot -11.9653 3.47188
ltoes -15.5854
176
root -1.23853 15.1681 -9.76332 23.8252 61.8613 8.46249
lowerback 14.3053 5.90262 -1.92584
upperback 8.9235 7.82635 1.10454
thorax 1.06406 3.93666 1.18406
lowerneck -0.613528 -12.0053 -14.0026
upperneck -23.9318 -12.3022 26.9756
head -3.82897 -6.73687 11.3385
rclavicle 9.54166e-015 7.95139e-015
rhumerus 15.5907 -22.4438 -73.6585
rradius 27.5518
rwrist 33.8522
rhand -3.50284 7.67289
rfingers 7.12502
rthumb 22.2313 -21.0685
lclavicle 9.54166e-015 7.95139e-015
lhumerus -69.9693 -25.771 100.666
lradius 47.3194
lwrist 23.6118
lhand 6.81281 33.0773
lfingers 7.12502
lthumb 32.0975 60.2636
rfemur 3.18008 -4.59706 23.0928
rtibia 33.067
rfoot -14.0061 0.298676
rtoes -10.4142
lfemur -49.8263 5.7263 -13.5745
ltibia 70.1532
lfoot -11.397 2.28349
ltoes -17.5903
